<svg width="20" height="20" viewBox="0 0 20 20" fill="none" xmlns="http://www.w3.org/2000/svg">
<path d="M15.7137 18.5938H8.87357C7.86545 18.5938 7.36135 18.5938 6.97632 18.3976C6.63764 18.2251 6.36224 17.9497 6.1897 17.611C5.9935 17.226 5.9935 16.7219 5.9935 15.7139V8.87404C5.9935 7.86598 5.9935 7.36193 6.1897 6.97691C6.36224 6.63822 6.63764 6.36286 6.97632 6.1903C7.36135 5.99411 7.86545 5.99411 8.87357 5.99411H15.7137C16.7219 5.99411 17.2259 5.99411 17.611 6.1903C17.9497 6.36286 18.225 6.63822 18.3976 6.97691C18.5938 7.36193 18.5938 7.86598 18.5938 8.87404V15.7139C18.5938 16.7219 18.5938 17.226 18.3976 17.611C18.225 17.9497 17.9497 18.2251 17.611 18.3976C17.2259 18.5938 16.7219 18.5938 15.7137 18.5938Z" stroke="#C7C7C7" stroke-width="1.1876" stroke-linecap="round" stroke-linejoin="round"/>
<path d="M10.9441 0.596318C11.5516 0.604543 11.9163 0.639723 12.2113 0.789984C12.55 0.962545 12.8253 1.2379 12.9979 1.57659C13.1482 1.8715 13.1834 2.23621 13.1916 2.84374M2.84385 0.596318C2.23625 0.604543 1.87156 0.639723 1.57662 0.789984C1.23794 0.962545 0.962535 1.2379 0.79 1.57659C0.639697 1.8715 0.604504 2.2362 0.596314 2.84373M0.596314 10.9435C0.604504 11.551 0.639697 11.9158 0.79 12.2107C0.962535 12.5494 1.23794 12.8248 1.57662 12.9973C1.87156 13.1476 2.23625 13.1828 2.84385 13.191M0.593795 5.99365V7.79361M7.79388 0.593798H5.99393" stroke="#63AADE" stroke-width="1.1876" stroke-linecap="round" stroke-linejoin="round"/>
</svg>
