<svg width="20" height="20" viewBox="0 0 20 20" fill="none" xmlns="http://www.w3.org/2000/svg">
<path d="M3.29381 12.2938C2.45512 12.2938 2.03577 12.2938 1.70498 12.1568C1.26393 11.9741 0.913518 11.6237 0.730827 11.1827C0.593811 10.8518 0.593811 10.4325 0.593811 9.5938V3.4738C0.593811 2.46571 0.593811 1.96165 0.790002 1.57662C0.962568 1.23792 1.23793 0.962555 1.57663 0.789989C1.96167 0.593798 2.46572 0.593798 3.47381 0.593798H9.59381C10.4325 0.593798 10.8518 0.593798 11.1827 0.730814C11.6237 0.913505 11.9741 1.26392 12.1568 1.70496C12.2938 2.03576 12.2938 2.45511 12.2938 3.2938M9.77381 18.5938H15.7138C16.7219 18.5938 17.226 18.5938 17.611 18.3976C17.9497 18.2251 18.2251 17.9497 18.3976 17.611C18.5938 17.226 18.5938 16.7219 18.5938 15.7138V9.7738C18.5938 8.76571 18.5938 8.26162 18.3976 7.8766C18.2251 7.53792 17.9497 7.26255 17.611 7.08999C17.226 6.8938 16.7219 6.8938 15.7138 6.8938H9.77381C8.76572 6.8938 8.26163 6.8938 7.87661 7.08999C7.53793 7.26255 7.26257 7.53792 7.09 7.8766C6.89381 8.26162 6.89381 8.76571 6.89381 9.7738V15.7138C6.89381 16.7219 6.89381 17.226 7.09 17.611C7.26257 17.9497 7.53793 18.2251 7.87661 18.3976C8.26163 18.5938 8.76572 18.5938 9.77381 18.5938Z" stroke="#C7C7C7" stroke-width="1.1876" stroke-linecap="round" stroke-linejoin="round"/>
</svg>
