<svg width="17" height="17" viewBox="0 0 17 17" fill="none" xmlns="http://www.w3.org/2000/svg">
<path fill-rule="evenodd" clip-rule="evenodd" d="M14.25 0.25H10.25V1.25H14.25C14.802 1.25 15.25 1.698 15.25 2.25V6.25H16.25V2.25C16.25 1.1455 15.3545 0.25 14.25 0.25ZM15.25 14.25C15.25 14.802 14.802 15.25 14.25 15.25H10.25V16.25H14.25C15.3545 16.25 16.25 15.3545 16.25 14.25V10.25H15.25V14.25ZM1.25 14.25V10.25H0.25V14.25C0.25 15.3545 1.1455 16.25 2.25 16.25H6.25V15.25H2.25C1.698 15.25 1.25 14.802 1.25 14.25ZM0.25 2.25V6.25H1.25V2.25C1.25 1.698 1.698 1.25 2.25 1.25H6.25V0.25H2.25C1.1455 0.25 0.25 1.1455 0.25 2.25Z" fill="#C7C7C7" stroke="#C7C7C7" stroke-width="0.5"/>
</svg>
