<svg width="18" height="18" viewBox="0 0 18 18" fill="none" xmlns="http://www.w3.org/2000/svg">
<path d="M-3.04003e-07 11.0452C-2.0551e-07 13.2985 1.83518 15.1316 4.09091 15.1316L12.343 15.1316L10.8761 16.597C10.7976 16.6733 10.7352 16.7645 10.6927 16.8652C10.6501 16.966 10.6283 17.0743 10.6284 17.1836C10.6286 17.3462 10.6773 17.5049 10.7682 17.6397C10.8592 17.7744 10.9883 17.879 11.1391 17.9401C11.2899 18.0012 11.4554 18.016 11.6147 17.9826C11.7739 17.9492 11.9196 17.8692 12.033 17.7527L14.8967 14.8922C15.05 14.7389 15.1362 14.5311 15.1362 14.3144C15.1362 14.0976 15.05 13.8898 14.8967 13.7365L12.033 10.876C11.9576 10.7976 11.8673 10.7349 11.7674 10.6918C11.6675 10.6487 11.5599 10.6259 11.4511 10.6248C11.3422 10.6237 11.2343 10.6443 11.1335 10.6854C11.0327 10.7265 10.9411 10.7872 10.8642 10.8641C10.7872 10.941 10.7264 11.0325 10.6852 11.1331C10.6441 11.2338 10.6234 11.3417 10.6245 11.4504C10.6257 11.5591 10.6485 11.6666 10.6917 11.7664C10.7348 11.8662 10.7975 11.9564 10.8761 12.0317L12.343 13.4971L4.09091 13.4971C2.73723 13.4971 1.63636 12.3974 1.63636 11.0452L1.63636 6.76723L-4.95745e-07 6.65868L-3.04003e-07 11.0452ZM2.86364 3.70161C2.86682 3.91419 2.9528 4.11718 3.10334 4.26748L5.96697 7.12799C6.04237 7.20642 6.13267 7.26905 6.23259 7.31219C6.33251 7.35533 6.44005 7.37812 6.5489 7.37923C6.65775 7.38033 6.76573 7.35973 6.86652 7.31863C6.9673 7.27753 7.05886 7.21676 7.13583 7.13987C7.2128 7.06298 7.27365 6.97152 7.31479 6.87085C7.35594 6.77018 7.37656 6.66232 7.37545 6.55358C7.37434 6.44485 7.35153 6.33743 7.30834 6.23762C7.26515 6.1378 7.20246 6.0476 7.12393 5.97229L5.65696 4.50692L13.9091 4.50692C15.2628 4.50692 16.3636 5.60658 16.3636 6.95878L16.3636 11.2455L18 11.3493L18 6.95878C18 4.70552 16.1648 2.87235 13.9091 2.87235L5.65696 2.87235L7.12393 1.40698C7.20246 1.33167 7.26515 1.24147 7.30834 1.14165C7.35153 1.04184 7.37434 0.93442 7.37545 0.825687C7.37656 0.716954 7.35594 0.609094 7.31479 0.508422C7.27365 0.40775 7.2128 0.316291 7.13583 0.239402C7.05886 0.162512 6.9673 0.101738 6.86652 0.0606375C6.76573 0.0195368 6.65775 -0.0010648 6.5489 4.18522e-05C6.44005 0.00114851 6.33251 0.0239407 6.23259 0.0670818C6.13267 0.110223 6.04236 0.172846 5.96697 0.251285L3.10334 3.11179C3.02592 3.18909 2.96482 3.28112 2.92364 3.38243C2.88247 3.48374 2.86206 3.59228 2.86364 3.70161Z" fill="#C7C7C7"/>
</svg>
